<svg width="57" height="84" viewBox="0 0 57 84" version="1.1" xmlns="http://www.w3.org/2000/svg" xmlns:xlink="http://www.w3.org/1999/xlink">
<title>Balloon</title>
<desc>Created using Figma</desc>
<g id="Canvas" transform="translate(973 -647)">
<g id="Balloon">
<g id="Vector">
<use xlink:href="#path0_fill" transform="translate(-972 648)" fill="#F03030"/>
<use xlink:href="#path1_stroke" transform="translate(-972 648)"/>
</g>
<g id="Vector 2">
<use xlink:href="#path2_fill" transform="translate(-939 656)" fill="#FFFFFF" fill-opacity="0.4"/>
</g>
</g>
</g>
<defs>
<path id="path0_fill" d="M 27.509 74C 18.509 68.5 0.508987 52.5 0.00898641 29C -0.491014 5.5 20.009 0 27.509 0C 35.009 0 54.1387 5.5 55.009 29C 55.7683 49.5 37.509 68 27.509 74L 32.509 82.5L 22.009 82.5L 27.509 74Z"/>
<path id="path1_stroke" d="M 55.009 29L 54.5094 29.0185L 55.009 29ZM 22.009 82.5L 21.5892 82.2284L 21.09 83L 22.009 83L 22.009 82.5ZM 32.509 82.5L 32.509 83L 33.3832 83L 32.94 82.2465L 32.509 82.5ZM 27.7697 73.5734C 18.8297 68.11 1.00354 52.2386 0.508873 28.9894L -0.4909 29.0106C 0.014436 52.7614 18.1884 68.89 27.2483 74.4266L 27.7697 73.5734ZM 0.508873 28.9894C 0.262578 17.4135 5.1767 10.3155 11.0508 6.09351C 16.9534 1.85102 23.8473 0.5 27.509 0.5L 27.509 -0.5C 23.6706 -0.5 16.5646 0.898979 10.4672 5.28149C 4.34127 9.68448 -0.744605 17.0865 -0.4909 29.0106L 0.508873 28.9894ZM 27.509 0.5C 31.1658 0.5 37.7156 1.84844 43.4477 6.08945C 49.1564 10.3131 54.0799 17.4231 54.5094 29.0185L 55.5087 28.9815C 55.0678 17.0769 49.9913 9.68687 44.0425 5.28555C 38.1172 0.901564 31.3521 -0.5 27.509 -0.5L 27.509 0.5ZM 54.5094 29.0185C 54.8834 39.1164 50.5718 48.7579 44.8881 56.6452C 39.2049 64.5318 32.1893 70.6087 27.2517 73.5713L 27.7662 74.4287C 32.8287 71.3913 39.9428 65.2182 45.6994 57.2298C 51.4555 49.2421 55.894 39.3836 55.5087 28.9815L 54.5094 29.0185ZM 27.0892 73.7284L 21.5892 82.2284L 22.4288 82.7716L 27.9288 74.2716L 27.0892 73.7284ZM 22.009 83L 32.509 83L 32.509 82L 22.009 82L 22.009 83ZM 32.94 82.2465L 27.94 73.7465L 27.078 74.2535L 32.0781 82.7535L 32.94 82.2465Z"/>
<path id="path2_fill" d="M 1.5 0L 0 5.5C 2.8 5.5 4.83333 7.5 5.5 8.5L 9.5 5.5C 9.1 2.7 4 0.666667 1.5 0Z"/>
</defs>
</svg>
