<svg width="55" height="67" viewBox="0 0 55 67" version="1.1" xmlns="http://www.w3.org/2000/svg" xmlns:xlink="http://www.w3.org/1999/xlink">
<title>Tired Balloon</title>
<desc>Created using Figma</desc>
<g id="Canvas" transform="translate(885 -665)">
<g id="Tired Balloon">
<g id="Vector">
<use xlink:href="#path0_fill" transform="translate(-869.991 723)" fill="#F03030"/>
<use xlink:href="#path1_stroke" transform="translate(-869.991 723)"/>
</g>
<g id="Vector">
<use xlink:href="#path2_fill" transform="matrix(0.965926 0.258819 -0.258819 0.965926 -869.658 665.652)" fill="#F03030"/>
<use xlink:href="#path3_stroke" transform="matrix(0.965926 0.258819 -0.258819 0.965926 -869.658 665.652)"/>
</g>
<g id="Vector 2.1">
<use xlink:href="#path4_fill" transform="translate(-848.991 677)" fill="#FFFFFF" fill-opacity="0.4"/>
</g>
</g>
</g>
<defs>
<path id="path0_fill" d="M 0 8.5L 5.49995 0L 10.5 8.5L 0 8.5Z"/>
<path id="path1_stroke" d="M 5.49995 0L 5.93092 -0.253512L 5.52022 -0.951703L 5.08017 -0.271624L 5.49995 0ZM 0 8.5L -0.419786 8.22838L -0.919068 9L 0 9L 0 8.5ZM 10.5 8.5L 10.5 9L 11.3742 9L 10.931 8.24649L 10.5 8.5ZM 5.08017 -0.271624L -0.419786 8.22838L 0.419786 8.77162L 5.91974 0.271624L 5.08017 -0.271624ZM 0 9L 10.5 9L 10.5 8L 0 8L 0 9ZM 10.931 8.24649L 5.93092 -0.253512L 5.06899 0.253512L 10.069 8.75351L 10.931 8.24649Z"/>
<path id="path2_fill" d="M 0.00653205 21.1622C 0.369957 38.3108 13.4533 49.9865 19.9949 54C 27.2634 49.6216 40.5352 36.1216 39.9833 21.1622C 39.3507 4.01351 25.4463 0 19.9949 0C 14.5435 0 -0.356893 4.01351 0.00653205 21.1622Z"/>
<path id="path3_stroke" d="M 19.9949 54L 19.7334 54.4262L 19.9925 54.5851L 20.2529 54.4283L 19.9949 54ZM 0.00653205 21.1622L -0.493356 21.1728L 0.00653205 21.1622ZM 39.9833 21.1622L 39.4837 21.1806L 39.4837 21.1806L 39.9833 21.1622ZM 20.2564 53.5738C 13.7752 49.5974 0.86455 38.0503 0.50642 21.1516L -0.493356 21.1728C -0.124635 38.5713 13.1314 50.3756 19.7334 54.4262L 20.2564 53.5738ZM 0.50642 21.1516C 0.328378 12.7505 3.87754 7.61191 8.11275 4.5558C 12.3764 1.47917 17.358 0.5 19.9949 0.5L 19.9949 -0.5C 17.1804 -0.5 11.9862 0.527587 7.52759 3.74488C 3.04059 6.98268 -0.67874 12.4252 -0.493356 21.1728L 0.50642 21.1516ZM 19.9949 0.5C 22.627 0.5 27.3581 1.47656 31.498 4.55172C 35.6146 7.60954 39.173 12.7601 39.4837 21.1806L 40.483 21.1437C 40.161 12.4156 36.4509 6.98505 32.0943 3.74896C 27.761 0.530194 22.8142 -0.5 19.9949 -0.5L 19.9949 0.5ZM 39.4837 21.1806C 39.754 28.5089 36.637 35.5155 32.5156 41.2574C 28.3946 46.9988 23.3087 51.4202 19.7369 53.5717L 20.2529 54.4283C 23.9497 52.2015 29.1339 47.6837 33.3279 41.8405C 37.5216 35.998 40.7645 28.7749 40.483 21.1437L 39.4837 21.1806Z"/>
<path id="path4_fill" d="M 1.09027 0L 0 4.01351C 2.03518 4.01351 3.51311 5.47297 3.99767 6.2027L 6.90507 4.01351C 6.61433 1.97027 2.9074 0.486486 1.09027 0Z"/>
</defs>
</svg>
