<svg width="38" height="57" viewBox="0 0 38 57" version="1.1" xmlns="http://www.w3.org/2000/svg" xmlns:xlink="http://www.w3.org/1999/xlink">
<title>Balloon tool</title>
<desc>Created using Figma</desc>
<g id="Canvas" transform="translate(144 5)">
<g id="Balloon tool">
<g id="Vector">
<use xlink:href="#path0_fill" transform="translate(-143 -4)" fill="#474747"/>
<use xlink:href="#path1_stroke" transform="translate(-143 -4)"/>
</g>
<g id="Vector 2.4">
<use xlink:href="#path2_fill" transform="translate(-121.08 0.666667)" fill="#474747"/>
</g>
</g>
</g>
<defs>
<path id="path0_fill" d="M 17.9954 49.3333C 12.108 45.6667 0.332961 35 0.00587859 19.3333C -0.321204 3.66667 13.0892 0 17.9954 0C 22.9017 0 35.4156 3.66667 35.985 19.3333C 36.4817 33 24.5371 45.3333 17.9954 49.3333L 21.2663 55L 14.3975 55L 17.9954 49.3333Z"/>
<path id="path1_stroke" d="M 0.00587859 19.3333L -0.494012 19.3438L 0.00587859 19.3333ZM 35.985 19.3333L 36.4847 19.3152L 36.4847 19.3152L 35.985 19.3333ZM 14.3975 55L 13.9754 54.732L 13.4878 55.5L 14.3975 55.5L 14.3975 55ZM 21.2663 55L 21.2663 55.5L 22.1322 55.5L 21.6993 54.75L 21.2663 55ZM 18.2597 48.9089C 12.4344 45.2809 0.827709 34.7432 0.50577 19.3229L -0.494012 19.3438C -0.161786 35.2568 11.7815 46.0524 17.7311 49.7578L 18.2597 48.9089ZM 0.50577 19.3229C 0.345776 11.6595 3.53446 6.97786 7.33361 4.19503C 11.1609 1.39157 15.6327 0.5 17.9954 0.5L 17.9954 -0.5C 15.4519 -0.5 10.7653 0.441763 6.74269 3.3883C 2.69186 6.35548 -0.661102 11.3405 -0.494012 19.3438L 0.50577 19.3229ZM 17.9954 0.5C 20.3532 0.5 24.5993 1.38888 28.3155 4.1909C 32.0086 6.97557 35.2061 11.6691 35.4853 19.3515L 36.4847 19.3152C 36.1945 11.3309 32.8503 6.35777 28.9175 3.39244C 25.0078 0.444456 20.5438 -0.5 17.9954 -0.5L 17.9954 0.5ZM 35.4853 19.3515C 35.7282 26.0357 32.9273 32.4286 29.2213 37.6697C 25.5155 42.9105 20.9427 46.9451 17.7346 48.9068L 18.2562 49.7599C 21.5897 47.7216 26.2601 43.5895 30.0378 38.247C 33.8154 32.9047 36.7384 26.2976 36.4847 19.3152L 35.4853 19.3515ZM 17.5733 49.0653L 13.9754 54.732L 14.8196 55.268L 18.4175 49.6013L 17.5733 49.0653ZM 14.3975 55.5L 21.2663 55.5L 21.2663 54.5L 14.3975 54.5L 14.3975 55.5ZM 21.6993 54.75L 18.4285 49.0834L 17.5624 49.5833L 20.8332 55.25L 21.6993 54.75Z"/>
<path id="path2_fill" d="M 0.981248 0L 0 3.66667C 1.83166 3.66667 3.1618 5 3.59791 5.66667L 6.21457 3.66667C 5.9529 1.8 2.61666 0.444444 0.981248 0Z"/>
</defs>
</svg>
