<svg width="46" height="68" viewBox="0 0 46 68" version="1.1" xmlns="http://www.w3.org/2000/svg" xmlns:xlink="http://www.w3.org/1999/xlink">
<title>Chair tool</title>
<desc>Created using Figma</desc>
<g id="Canvas" transform="translate(146 96)">
<g id="Chair tool">
<use xlink:href="#path0_fill" transform="translate(-145 -95)" fill="#474747"/>
<use xlink:href="#path1_fill" transform="translate(-145 -95)" fill="#474747"/>
<use xlink:href="#path2_fill" transform="translate(-145 -95)" fill="#474747"/>
<use xlink:href="#path3_fill" transform="translate(-145 -95)" fill="#474747"/>
<use xlink:href="#path4_fill" transform="translate(-145 -95)" fill="#474747"/>
<use xlink:href="#path5_fill" transform="translate(-145 -95)" fill="#474747"/>
<use xlink:href="#path6_fill" transform="translate(-145 -95)" fill="#474747"/>
<use xlink:href="#path7_fill" transform="translate(-145 -95)" fill="#474747"/>
<use xlink:href="#path8_fill" transform="translate(-145 -95)" fill="#474747"/>
<use xlink:href="#path9_fill" transform="translate(-145 -95)" fill="#474747"/>
<use xlink:href="#path10_fill" transform="translate(-145 -95)" fill="#474747"/>
<use xlink:href="#path11_fill" transform="translate(-145 -95)" fill="#474747"/>
<use xlink:href="#path12_fill" transform="translate(-145 -95)" fill="#474747"/>
<use xlink:href="#path13_fill" transform="translate(-145 -95)" fill="#474747"/>
<use xlink:href="#path14_stroke" transform="translate(-145 -95)" fill="#474747"/>
</g>
</g>
<defs>
<path id="path0_fill" d="M 17.9718 66C 18.7981 66 18.867 64.6303 18.7981 63.9454L 16.5791 56.3435L 15.9794 54.2889L 14.2654 48.4172L 13.7026 46.4889L 10.1992 34.4867L 9.28965 31.3708L 8.66273 29.2231L 6.02393 20.1829L 2.06573 6.62274L 0.826291 7.3076L 0.206573 7.65003L 4.95775 24.4923L 6.17638 28.8122L 6.64804 30.4841L 7.52392 33.589L 11.2941 46.9537L 11.8431 48.8999L 16.3192 64.7673C 16.5258 65.1782 17.1455 66 17.9718 66Z"/>
<path id="path1_fill" d="M 19.4178 34.7704L 9.28965 31.3708L 10.1992 34.4867L 19.0047 37.4414L 19.4178 34.7704Z"/>
<path id="path2_fill" d="M 26.4413 27.1685L 8.66273 29.2231L 9.28965 31.3708L 19.4178 34.7704C 21.4229 34.6531 24.7478 34.4153 27.6316 34.1104L 29.2969 33.9196C 30.7502 33.7379 31.9624 33.5392 32.6385 33.3322C 33.0077 33.2192 33.4351 33.0804 33.8989 32.9243C 34.522 32.7147 35.2107 32.4741 35.9121 32.2239C 37.7263 31.5767 39.6256 30.8648 40.6948 30.4558L 34.9728 29.1361L 32.6087 28.5909L 30.5231 28.1099L 29.0003 27.7587L 26.4413 27.1685Z"/>
<path id="path3_fill" d="M 40.6948 32.9213L 40.6948 30.4558C 39.6256 30.8648 37.7263 31.5767 35.9121 32.2239C 35.2107 32.4741 34.522 32.7147 33.8989 32.9243C 33.4351 33.0804 33.0077 33.2192 32.6385 33.3322C 31.9624 33.5392 30.7502 33.7379 29.2969 33.9196C 28.7689 33.9856 28.2091 34.0493 27.6316 34.1104C 24.7478 34.4153 21.4229 34.6531 19.4178 34.7704L 19.0047 37.4414C 21.036 37.2612 24.2503 36.9633 27.0793 36.6737L 28.7526 36.4981C 30.5654 36.3026 32.0367 36.1235 32.6385 36.0032C 33.6167 35.8076 34.2585 35.6022 34.6476 35.4391L 34.7776 35.382C 34.9619 35.2969 35.0703 35.227 35.1174 35.1814L 36.6259 34.5701L 40.6948 32.9213Z"/>
<path id="path4_fill" d="M 31.0614 16.2793L 29.1268 16.8956L 30.4113 21.2102L 31.3289 24.2921L 32.6087 28.5909L 34.9728 29.1361L 31.0614 16.2793Z"/>
<path id="path5_fill" d="M 31.3289 24.2921L 30.4113 21.2102L 29.0003 27.7587L 30.5231 28.1099L 31.3289 24.2921Z"/>
<path id="path6_fill" d="M 24.169 50.1798C 24.0313 50.5907 24.293 51.4536 24.7887 51.618C 25.2845 51.7823 25.8216 50.3852 25.8216 50.3852L 28.7526 36.4981C 28.2199 36.5556 27.6576 36.6145 27.0793 36.6737L 25.4529 44.2215L 26.4413 43.9679L 26.0282 46.0225L 25.0102 46.2761L 24.169 50.1798Z"/>
<path id="path7_fill" d="M 14.2654 48.4172L 25.0102 46.2761L 26.0282 46.0225L 26.4413 43.9679L 25.4529 44.2215L 13.7026 46.4889L 14.2654 48.4172Z"/>
<path id="path8_fill" d="M 3.09339 48.5361L 2.75342 50.7111L 11.8431 48.8999L 11.2941 46.9537L 3.09339 48.5361Z"/>
<path id="path9_fill" d="M 1.03286 55.9326C 1.6939 55.9326 1.99687 55.3847 2.06573 55.1107L 2.75342 50.7111L 3.09339 48.5361L 5.53409 32.9213L 5.95158 30.2504L 6.17638 28.8122L 4.95775 24.4923L 0 54.4944C 0.0688576 54.9738 0.371831 55.9326 1.03286 55.9326Z"/>
<path id="path10_fill" d="M 38.7304 49.1525L 15.9794 54.2889L 16.5791 56.3435L 39.2809 51.0016L 40.3717 50.7349L 39.8159 48.8881L 38.7304 49.1525Z"/>
<path id="path11_fill" d="M 43.1737 60.0417C 43.6695 60.0417 43.9311 59.2199 44 58.809L 41.4625 50.4683L 40.9014 48.6238L 36.6259 34.5701L 34.7776 35.382C 34.7378 35.4004 34.6946 35.4195 34.6476 35.4391L 38.7304 49.1525L 39.8159 48.8881L 40.3717 50.7349L 39.2809 51.0016L 41.7277 59.2199C 42.0031 59.4938 42.6779 60.0417 43.1737 60.0417Z"/>
<path id="path12_fill" d="M 5.95158 30.2504L 5.53409 32.9213L 7.52392 33.589L 6.64804 30.4841L 5.95158 30.2504Z"/>
<path id="path13_fill" fill-rule="evenodd" d="M 2.06573 6.62274L 0.826291 7.3076L 0.206573 5.38999C 0.27543 3.81482 2.54684 0.996323 10.9484 0.253553C 20.2441 -0.568277 24.9953 0.664465 27.061 3.12996L 31.0614 16.2793L 29.1268 16.8956C 26.579 17.0326 20.5333 17.4298 16.7324 17.9229C 12.9315 18.416 8.00969 19.6351 6.02393 20.1829L 2.06573 6.62274ZM 20.3078 2.24245C 21.8347 2.5511 21.3598 4.06048 19.807 4.18326L 7.65839 5.1438C 6.20393 5.2588 5.45421 3.93324 6.79256 3.3523C 8.14992 2.76312 10.2928 2.27576 13.7026 2.05458C 16.7289 1.85827 18.828 1.94329 20.3078 2.24245Z"/>
<path id="path14_stroke" d="M 2.06573 6.62274L 2.5457 6.48264L 2.37066 5.88299L 1.82391 6.18511L 2.06573 6.62274ZM 18.7981 63.9454L 19.2956 63.8954L 19.291 63.8496L 19.2781 63.8053L 18.7981 63.9454ZM 16.3192 64.7673L 15.838 64.903L 15.851 64.9491L 15.8725 64.9918L 16.3192 64.7673ZM 0.206573 7.65003L -0.0352453 7.21239L -0.3823 7.40416L -0.274646 7.78578L 0.206573 7.65003ZM 0.206573 5.38999L -0.29295 5.36816L -0.296882 5.45809L -0.269199 5.54375L 0.206573 5.38999ZM 10.9484 0.253553L 10.9924 0.751611L 10.9484 0.253553ZM 27.061 3.12996L 27.5394 2.98443L 27.5097 2.88695L 27.4443 2.80885L 27.061 3.12996ZM 44 58.809L 44.4931 58.8916L 44.5125 58.7758L 44.4784 58.6635L 44 58.809ZM 41.7277 59.2199L 41.2485 59.3626L 41.2848 59.4846L 41.3751 59.5744L 41.7277 59.2199ZM 31.0614 16.2793L 31.5397 16.1337L 31.5397 16.1337L 31.0614 16.2793ZM 30.4113 21.2102L 30.8905 21.0676L 30.8905 21.0676L 30.4113 21.2102ZM 24.169 50.1798L 24.6431 50.3386L 24.6519 50.3123L 24.6578 50.2851L 24.169 50.1798ZM 25.8216 50.3852L 26.2883 50.5646L 26.3026 50.5275L 26.3108 50.4885L 25.8216 50.3852ZM 15.9794 54.2889L 15.4994 54.429L 15.4994 54.429L 15.9794 54.2889ZM 38.7304 49.1525L 38.8405 49.6403L 38.8487 49.6383L 38.7304 49.1525ZM 2.06573 55.1107L 2.55064 55.2326L 2.55621 55.2105L 2.55973 55.188L 2.06573 55.1107ZM 0 54.4944L -0.49331 54.4129L -0.505898 54.489L -0.494921 54.5655L 0 54.4944ZM 4.95775 24.4923L 5.43897 24.3565L 4.95775 24.4923ZM 25.4529 44.2215L 25.5476 44.7124L 25.5625 44.7096L 25.5771 44.7058L 25.4529 44.2215ZM 2.75342 50.7111L 2.25942 50.6339L 2.25942 50.6339L 2.75342 50.7111ZM 11.8431 48.8999L 12.3243 48.7641L 12.3243 48.7641L 11.8431 48.8999ZM 14.2654 48.4172L 13.7855 48.5573L 13.7855 48.5573L 14.2654 48.4172ZM 40.9014 48.6238L 41.3798 48.4783L 41.3798 48.4783L 40.9014 48.6238ZM 41.4625 50.4683L 40.9842 50.6138L 40.9842 50.6138L 41.4625 50.4683ZM 32.6385 33.3322L 32.4922 32.8541L 32.4922 32.8541L 32.6385 33.3322ZM 40.6948 30.4558L 41.1948 30.4558L 41.1948 30.058L 40.8072 29.9686L 40.6948 30.4558ZM 26.4413 27.1685L 26.5537 26.6813L 26.4696 26.6619L 26.3839 26.6718L 26.4413 27.1685ZM 5.53409 32.9213L 5.04009 32.8441L 5.53409 32.9213ZM 19.0047 37.4414L 18.8456 37.9154L 18.9447 37.9487L 19.0489 37.9394L 19.0047 37.4414ZM 32.6385 36.0032L 32.7366 36.4935L 32.6385 36.0032ZM 35.1174 35.1814L 34.9296 34.718L 34.8394 34.7545L 34.7695 34.8222L 35.1174 35.1814ZM 40.6948 32.9213L 40.8826 33.3847L 41.1948 33.2582L 41.1948 32.9213L 40.6948 32.9213ZM 9.28965 31.3708L 8.80968 31.5109L 8.80968 31.5109L 9.28965 31.3708ZM 10.1992 34.4867L 9.7192 34.6268L 9.7192 34.6268L 10.1992 34.4867ZM 6.64804 30.4841L 7.12926 30.3484L 7.12926 30.3484L 6.64804 30.4841ZM 27.6316 34.1104L 27.6842 34.6076L 27.6316 34.1104ZM 29.2969 33.9196L 29.3589 34.4157L 29.2969 33.9196ZM 33.8989 32.9243L 33.7395 32.4504L 33.8989 32.9243ZM 35.9121 32.2239L 36.0801 32.6949L 35.9121 32.2239ZM 30.5231 28.1099L 30.4107 28.5971L 30.4107 28.5971L 30.5231 28.1099ZM 32.6087 28.5909L 32.4964 29.0781L 32.4964 29.0781L 32.6087 28.5909ZM 39.8159 48.8881L 40.2947 48.744L 40.1581 48.2902L 39.6976 48.4023L 39.8159 48.8881ZM 40.3717 50.7349L 40.4905 51.2206L 41.0024 51.0955L 40.8505 50.5908L 40.3717 50.7349ZM 26.4413 43.9679L 26.9315 44.0665L 27.0885 43.2857L 26.3171 43.4836L 26.4413 43.9679ZM 26.0282 46.0225L 26.149 46.5077L 26.456 46.4312L 26.5184 46.1211L 26.0282 46.0225ZM 13.7026 2.05458L 13.6702 1.55563L 13.7026 2.05458ZM 20.3078 2.24245L 20.2088 2.73253L 20.3078 2.24245ZM 18.3006 63.9954C 18.3332 64.3129 18.3366 64.7377 18.2369 65.1031C 18.136 65.489 18.015 65.5 17.9718 65.5L 17.9718 66.5C 18.755 66.5 19.0815 65.8262 19.2044 65.356C 19.3285 64.8652 19.3319 64.2628 19.2956 63.8954L 18.3006 63.9954ZM 17.9718 65.5C 17.7292 65.5 17.4823 65.3782 17.2485 65.1668C 17.0073 64.9538 16.8544 64.7207 16.766 64.5427L 15.8725 64.9918C 15.9907 65.2247 16.2509 65.608 16.5778 65.9086C 16.9121 66.2109 17.3882 66.5 17.9718 66.5L 17.9718 65.5ZM 0.448391 8.08766L 1.06811 7.74523L 0.584473 6.86996L -0.0352453 7.21239L 0.448391 8.08766ZM 1.06811 7.74523L 2.30755 7.06037L 1.82391 6.18511L 0.584473 6.86996L 1.06811 7.74523ZM 1.30206 7.15384L 0.682345 5.23624L -0.269199 5.54375L 0.350519 7.46136L 1.30206 7.15384ZM 0.706096 5.41183C 0.730665 4.84978 1.16934 3.88017 2.7135 2.93623C 4.25122 1.99622 6.83583 1.11909 10.9924 0.751611L 10.9043 -0.244504C 6.65936 0.130789 3.90751 1.03429 2.19193 2.08302C 0.482798 3.12781 -0.248662 4.35504 -0.29295 5.36816L 0.706096 5.41183ZM 10.9924 0.751611C 15.611 0.342421 19.0522 0.442242 21.6193 0.949586C 24.1622 1.4504 25.7441 2.33666 26.6778 3.45107L 27.4443 2.80885C 26.3123 1.45777 24.4857 0.494904 21.8126 -0.0315661C 19.1638 -0.551509 15.5815 -0.657145 10.9043 -0.244504L 10.9924 0.751611ZM 43.5069 58.7264C 43.477 58.9083 43.4176 59.1397 43.3051 59.3455C 43.182 59.5778 43.1194 59.5417 43.1737 59.5417L 43.1737 60.5417C 43.7238 60.5417 44.0399 60.0947 44.1888 59.8134C 44.3483 59.5055 44.4542 59.1206 44.4931 58.8916L 43.5069 58.7264ZM 43.1737 59.5417C 43.0789 59.5417 42.8905 59.4757 42.6393 59.3135C 42.4029 59.1623 42.2055 58.9903 42.0803 58.8654L 41.3751 59.5744C 41.5254 59.7234 41.8031 59.9624 42.0968 60.1536C 42.3758 60.3338 42.7727 60.5417 43.1737 60.5417L 43.1737 59.5417ZM 26.5827 3.27549L 30.583 16.4248L 31.5397 16.1337L 27.5394 2.98443L 26.5827 3.27549ZM 29.2785 17.372L 31.2132 16.7557L 30.9096 15.8028L 28.975 16.4192L 29.2785 17.372ZM 29.0999 16.3963C 26.5492 16.5335 20.4848 16.9322 16.6681 17.4271L 16.7967 18.4188C 20.5819 17.9274 26.6088 17.5317 29.1536 17.3949L 29.0999 16.3963ZM 1.58576 6.76284L 5.54396 20.323L 6.5039 20.0428L 2.5457 6.48264L 1.58576 6.76284ZM 16.6681 17.4271C 12.839 17.9246 7.88308 19.1514 5.89094 19.701L 6.15691 20.6649C 8.1363 20.1188 13.0239 18.9074 16.7967 18.4188L 16.6681 17.4271ZM 30.8905 21.0676L 29.606 16.753L 28.6475 17.0383L 29.9321 21.3529L 30.8905 21.0676ZM 23.6949 50.0209C 23.575 50.3787 23.6422 50.8249 23.7744 51.1702C 23.9049 51.5108 24.1716 51.9401 24.6314 52.0926L 24.9461 51.1434C 24.9101 51.1314 24.7981 51.0472 24.7082 50.8125C 24.6201 50.5824 24.6253 50.3917 24.6431 50.3386L 23.6949 50.0209ZM 24.6314 52.0926C 25.0161 52.2201 25.3303 52.0132 25.4934 51.8666C 25.6522 51.72 25.8115 51.5012 25.9204 51.3195C 26.029 51.1368 26.1244 50.942 26.1855 50.8071C 26.2169 50.7376 26.243 50.6761 26.2596 50.6359C 26.2683 50.6149 26.2756 50.5969 26.28 50.5857C 26.2824 50.5797 26.2845 50.5744 26.2857 50.5713C 26.2864 50.5695 26.2871 50.5678 26.2874 50.5669C 26.2876 50.5664 26.2878 50.5658 26.288 50.5655C 26.288 50.5653 26.2881 50.5651 26.2882 50.565C 26.2882 50.5649 26.2882 50.5648 26.2882 50.5648C 26.2883 50.5647 26.2883 50.5646 25.8216 50.3852C 25.3549 50.2058 25.3549 50.2057 25.3549 50.2057C 25.355 50.2056 25.355 50.2056 25.355 50.2056C 25.355 50.2056 25.3551 50.2054 25.355 50.2054C 25.3551 50.2054 25.355 50.2054 25.355 50.2055C 25.3548 50.206 25.3547 50.2063 25.3544 50.2072C 25.3535 50.2094 25.3525 50.2119 25.3509 50.216C 25.3472 50.2253 25.3424 50.2371 25.3355 50.254C 25.3208 50.2896 25.3011 50.3359 25.2744 50.3948C 25.2193 50.5167 25.1494 50.661 25.0618 50.8069C 24.9744 50.954 24.9065 51.0536 24.8251 51.1227C 24.7481 51.1919 24.8092 51.098 24.9461 51.1434L 24.6314 52.0926ZM 31.8081 24.1494L 30.8905 21.0676L 29.9321 21.3529L 30.8497 24.4348L 31.8081 24.1494ZM 16.0895 54.7766L 38.8405 49.6402L 38.6203 48.6647L 15.8693 53.8012L 16.0895 54.7766ZM 42.2069 59.0772L 39.7601 50.8589L 38.8017 51.1443L 41.2485 59.3626L 42.2069 59.0772ZM 15.4994 54.429L 16.0992 56.4836L 17.0591 56.2034L 16.4594 54.1488L 15.4994 54.429ZM 16.0992 56.4836L 18.3182 64.0855L 19.2781 63.8053L 17.0591 56.2034L 16.0992 56.4836ZM 39.1664 50.5149L 16.4646 55.8568L 16.6937 56.8302L 39.3954 51.4883L 39.1664 50.5149ZM 1.58081 54.9889C 1.56522 55.0509 1.51149 55.1747 1.41341 55.2753C 1.32613 55.3648 1.20928 55.4326 1.03286 55.4326L 1.03286 56.4326C 2.02746 56.4326 2.45621 55.6083 2.55064 55.2326L 1.58081 54.9889ZM 1.03286 55.4326C 0.979122 55.4326 0.868939 55.3971 0.731122 55.1498C 0.591587 54.9078 0.524677 54.6358 0.494921 54.4233L -0.494921 54.5655C -0.455819 54.8323 -0.336814 55.2794 -0.14239 55.6367C 0.0537523 55.9886 0.425573 56.4326 1.03286 56.4326L 1.03286 55.4326ZM 6.6576 28.6764L 5.43897 24.3565L 4.47653 24.628L 5.69516 28.9479L 6.6576 28.6764ZM 5.43897 24.3565L 0.687792 7.51428L -0.274646 7.78578L 4.47653 24.628L 5.43897 24.3565ZM 0.49331 54.5759L 5.45106 24.5738L 4.46444 24.4108L -0.49331 54.4129L 0.49331 54.5759ZM 24.5214 46.1707L 23.6802 50.0744L 24.6578 50.2851L 25.499 46.3814L 24.5214 46.1707ZM 2.59939 48.4589L 2.25942 50.6339L 3.24742 50.7884L 3.58739 48.6133L 2.59939 48.4589ZM 2.25942 50.6339L 1.57173 55.0335L 2.55973 55.188L 3.24742 50.7884L 2.25942 50.6339ZM 3.18813 49.027L 11.3888 47.4446L 11.1993 46.4627L 2.99866 48.0452L 3.18813 49.027ZM 16.8005 64.6315L 12.3243 48.7641L 11.3619 49.0356L 15.838 64.903L 16.8005 64.6315ZM 12.3243 48.7641L 11.7753 46.8179L 10.8128 47.0894L 11.3619 49.0356L 12.3243 48.7641ZM 11.7454 48.4095L 2.6557 50.2208L 2.85113 51.2015L 11.9408 49.3902L 11.7454 48.4095ZM 24.9125 45.7857L 14.1677 47.9268L 14.3632 48.9075L 25.1079 46.7664L 24.9125 45.7857ZM 13.7855 48.5573L 15.4994 54.429L 16.4594 54.1488L 14.7454 48.277L 13.7855 48.5573ZM 13.2226 46.629L 13.7855 48.5573L 14.7454 48.277L 14.1826 46.3488L 13.2226 46.629ZM 13.7973 46.9798L 25.5476 44.7124L 25.3582 43.7305L 13.6079 45.9979L 13.7973 46.9798ZM 40.4231 48.7693L 40.9842 50.6138L 41.9409 50.3227L 41.3798 48.4783L 40.4231 48.7693ZM 40.9842 50.6138L 43.5216 58.9545L 44.4784 58.6635L 41.9409 50.3227L 40.9842 50.6138ZM 5.68238 28.735L 5.45757 30.1732L 6.44558 30.3276L 6.67038 28.8894L 5.68238 28.735ZM 5.54396 20.323L 8.18276 29.3632L 9.1427 29.083L 6.5039 20.0428L 5.54396 20.323ZM 26.3839 26.6718L 8.60533 28.7264L 8.72013 29.7198L 26.4987 27.6652L 26.3839 26.6718ZM 5.45757 30.1732L 5.04009 32.8441L 6.02809 32.9985L 6.44558 30.3276L 5.45757 30.1732ZM 5.04009 32.8441L 2.59939 48.4589L 3.58739 48.6133L 6.02809 32.9985L 5.04009 32.8441ZM 41.1948 32.9213L 41.1948 30.4558L 40.1948 30.4558L 40.1948 32.9213L 41.1948 32.9213ZM 8.18276 29.3632L 8.80968 31.5109L 9.76962 31.2307L 9.1427 29.083L 8.18276 29.3632ZM 9.13055 31.8448L 19.2587 35.2444L 19.5769 34.2964L 9.44876 30.8968L 9.13055 31.8448ZM 8.80968 31.5109L 9.7192 34.6268L 10.6791 34.3466L 9.76962 31.2307L 8.80968 31.5109ZM 9.7192 34.6268L 13.2226 46.629L 14.1826 46.3488L 10.6791 34.3466L 9.7192 34.6268ZM 10.0401 34.9607L 18.8456 37.9154L 19.1638 36.9674L 10.3582 34.0127L 10.0401 34.9607ZM 5.37503 33.3953L 7.36486 34.063L 7.68298 33.115L 5.69315 32.4473L 5.37503 33.3953ZM 11.7753 46.8179L 8.00514 33.4533L 7.0427 33.7248L 10.8128 47.0894L 11.7753 46.8179ZM 8.00514 33.4533L 7.12926 30.3484L 6.16682 30.6199L 7.0427 33.7248L 8.00514 33.4533ZM 7.12926 30.3484L 6.6576 28.6764L 5.69516 28.9479L 6.16682 30.6199L 7.12926 30.3484ZM 5.79247 30.7244L 6.48893 30.9582L 6.80714 30.0101L 6.11068 29.7764L 5.79247 30.7244ZM 19.447 35.2696C 21.4553 35.1521 24.7919 34.9133 27.6842 34.6076L 27.579 33.6132C 24.7036 33.9172 21.3904 34.1542 19.3886 34.2713L 19.447 35.2696ZM 27.6842 34.6076C 28.2637 34.5463 28.8282 34.4821 29.3589 34.4157L 29.2348 33.4235C 28.7096 33.4891 28.1545 33.5523 27.579 33.6132L 27.6842 34.6076ZM 29.3589 34.4157C 30.8217 34.2328 32.0762 34.026 32.7848 33.8103L 32.4922 32.8541C 31.8485 33.0523 30.6787 33.2431 29.2348 33.4235L 29.3589 34.4157ZM 27.6885 34.6071L 29.3538 34.4163L 29.24 33.4228L 27.5747 33.6136L 27.6885 34.6071ZM 26.3108 50.4885L 29.2419 36.6014L 28.2634 36.3949L 25.3324 50.282L 26.3108 50.4885ZM 28.8062 36.9953C 30.6225 36.7994 32.116 36.6172 32.7366 36.4935L 32.5404 35.5129C 31.9574 35.6299 30.5084 35.8059 28.699 36.001L 28.8062 36.9953ZM 19.0489 37.9394C 21.0812 37.7591 24.2988 37.461 27.1302 37.1711L 27.0284 36.1763C 24.2017 36.4657 20.9909 36.7632 18.9605 36.9433L 19.0489 37.9394ZM 27.1302 37.1711C 27.7091 37.1118 28.2727 37.0528 28.8062 36.9953L 28.699 36.001C 28.167 36.0584 27.6061 36.1171 27.0284 36.1763L 27.1302 37.1711ZM 26.5905 36.5684L 24.9641 44.1162L 25.9417 44.3268L 27.5681 36.779L 26.5905 36.5684ZM 28.7005 36.0009L 27.0271 36.1764L 27.1314 37.171L 28.8048 36.9954L 28.7005 36.0009ZM 19.4988 37.5178L 19.912 34.8469L 18.9237 34.694L 18.5106 37.365L 19.4988 37.5178ZM 32.7848 33.8103C 33.1582 33.6961 33.5921 33.5551 34.0583 33.3982L 33.7395 32.4504C 33.2781 32.6056 32.8573 32.7424 32.4922 32.8541L 32.7848 33.8103ZM 39.2096 49.0098L 35.1268 35.2965L 34.1684 35.5818L 38.2512 49.2951L 39.2096 49.0098ZM 32.7366 36.4935C 33.7421 36.2916 34.4315 36.0713 34.8409 35.9003L 34.4543 34.978C 34.0855 35.1331 33.4913 35.3235 32.5404 35.5129L 32.7366 36.4935ZM 35.3051 35.6448L 36.8137 35.0335L 36.4381 34.1067L 34.9296 34.718L 35.3051 35.6448ZM 36.8137 35.0335L 40.8826 33.3847L 40.5071 32.4579L 36.4381 34.1067L 36.8137 35.0335ZM 36.1476 34.7156L 40.4231 48.7693L 41.3798 48.4783L 37.1043 34.4246L 36.1476 34.7156ZM 34.0583 33.3982C 34.6841 33.1877 35.3771 32.9456 36.0801 32.6949L 35.7442 31.753C 35.0443 32.0027 34.3598 32.2417 33.7395 32.4504L 34.0583 33.3982ZM 36.0801 32.6949C 37.8981 32.0463 39.8027 31.3324 40.8735 30.9228L 40.5162 29.9888C 39.4486 30.3972 37.5546 31.1072 35.7442 31.753L 36.0801 32.6949ZM 29.9225 21.1049L 28.5115 27.6534L 29.4891 27.864L 30.9001 21.3156L 29.9225 21.1049ZM 29.1126 27.2715L 26.5537 26.6813L 26.3289 27.6557L 28.8879 28.2459L 29.1126 27.2715ZM 30.6354 27.6227L 29.1126 27.2715L 28.8879 28.2459L 30.4107 28.5971L 30.6354 27.6227ZM 31.0123 28.2131L 31.8181 24.3954L 30.8396 24.1888L 30.0339 28.0066L 31.0123 28.2131ZM 32.7211 28.1037L 30.6354 27.6227L 30.4107 28.5971L 32.4964 29.0781L 32.7211 28.1037ZM 33.0879 28.4482L 31.8081 24.1494L 30.8497 24.4348L 32.1295 28.7336L 33.0879 28.4482ZM 30.583 16.4248L 34.4944 29.2817L 35.4511 28.9906L 31.5397 16.1337L 30.583 16.4248ZM 40.8072 29.9686L 35.0851 28.6489L 34.8604 29.6233L 40.5825 30.943L 40.8072 29.9686ZM 35.0851 28.6489L 32.7211 28.1037L 32.4964 29.0781L 34.8604 29.6233L 35.0851 28.6489ZM 38.8487 49.6383L 39.9342 49.3739L 39.6976 48.4023L 38.6121 48.6667L 38.8487 49.6383ZM 39.3997 51.4873L 40.4905 51.2206L 40.253 50.2492L 39.1622 50.5159L 39.3997 51.4873ZM 39.3371 49.0322L 39.8929 50.879L 40.8505 50.5908L 40.2947 48.744L 39.3371 49.0322ZM 25.5771 44.7058L 26.5656 44.4523L 26.3171 43.4836L 25.3287 43.7372L 25.5771 44.7058ZM 25.9511 43.8694L 25.538 45.9239L 26.5184 46.1211L 26.9315 44.0665L 25.9511 43.8694ZM 25.9073 45.5373L 24.8893 45.7909L 25.131 46.7612L 26.149 46.5077L 25.9073 45.5373ZM 34.8487 35.8969L 34.9787 35.8398L 34.5765 34.9243L 34.4465 34.9814L 34.8487 35.8969ZM 34.9872 35.836C 35.1811 35.7464 35.3545 35.6478 35.4653 35.5405L 34.7695 34.8222C 34.7847 34.8075 34.7819 34.8139 34.7405 34.8389C 34.7037 34.8611 34.6475 34.8914 34.5679 34.9281L 34.9872 35.836ZM 34.9787 35.8398L 36.827 35.0279L 36.4248 34.1123L 34.5765 34.9243L 34.9787 35.8398ZM 34.8409 35.9003C 34.892 35.8788 34.9434 35.8562 34.9872 35.836L 34.5679 34.9281C 34.5322 34.9446 34.4971 34.9601 34.4543 34.978L 34.8409 35.9003ZM 7.6978 5.64224L 19.8464 4.6817L 19.7675 3.68481L 7.61898 4.64535L 7.6978 5.64224ZM 20.4069 1.75236C 18.8879 1.44689 16.7228 1.35831 13.6702 1.55563L 13.735 2.55353C 16.7349 2.35823 18.7682 2.4397 20.2088 2.73253L 20.4069 1.75236ZM 13.6702 1.55563C 10.2351 1.77845 8.02681 2.27148 6.59347 2.89365L 6.99165 3.81096C 8.27303 3.25475 10.3505 2.77307 13.735 2.55353L 13.6702 1.55563ZM 19.8464 4.6817C 20.7567 4.60972 21.4965 4.11478 21.6934 3.41862C 21.7953 3.05825 21.7356 2.67022 21.4861 2.35086C 21.245 2.04213 20.8654 1.84505 20.4069 1.75236L 20.2088 2.73253C 20.5137 2.79417 20.6473 2.90151 20.698 2.96643C 20.7404 3.02073 20.7512 3.07559 20.7311 3.14649C 20.6841 3.31287 20.4101 3.63401 19.7675 3.68481L 19.8464 4.6817ZM 7.61898 4.64535C 7.02947 4.69196 6.70567 4.4402 6.62209 4.27895C 6.58591 4.20915 6.58804 4.15586 6.61186 4.10477C 6.64049 4.04337 6.73179 3.92376 6.99165 3.81096L 6.59347 2.89365C 6.18416 3.07132 5.86729 3.33525 5.70553 3.68219C 5.53897 4.03943 5.56849 4.41927 5.73425 4.73911C 6.05457 5.35712 6.83285 5.71063 7.6978 5.64224L 7.61898 4.64535Z"/>
</defs>
</svg>
