<svg width="136" height="179" viewBox="0 0 135 179" version="1.1" xmlns="http://www.w3.org/2000/svg" xmlns:xlink="http://www.w3.org/1999/xlink">
<title>Vector 3.3</title>
<desc>Created using Figma</desc>
<g id="Canvas" transform="translate(-1340 -688)">
<g id="Vector 3.3">
<use xlink:href="#path0_fill" transform="matrix(0.984808 0.173648 -0.173648 0.984808 1368.89 689)" fill="#666666"/>
<use xlink:href="#path1_fill" transform="matrix(0.984808 0.173648 -0.173648 0.984808 1368.89 689)" fill="#666666"/>
<use xlink:href="#path2_fill" transform="matrix(0.984808 0.173648 -0.173648 0.984808 1368.89 689)" fill="#666666"/>
<use xlink:href="#path3_fill" transform="matrix(0.984808 0.173648 -0.173648 0.984808 1368.89 689)" fill="#666666"/>
<use xlink:href="#path4_fill" transform="matrix(0.984808 0.173648 -0.173648 0.984808 1368.89 689)" fill="#666666"/>
<use xlink:href="#path5_fill" transform="matrix(0.984808 0.173648 -0.173648 0.984808 1368.89 689)" fill="#666666"/>
<use xlink:href="#path6_fill" transform="matrix(0.984808 0.173648 -0.173648 0.984808 1368.89 689)" fill="#666666"/>
<use xlink:href="#path7_fill" transform="matrix(0.984808 0.173648 -0.173648 0.984808 1368.89 689)" fill="#666666"/>
<use xlink:href="#path8_fill" transform="matrix(0.984808 0.173648 -0.173648 0.984808 1368.89 689)" fill="#666666"/>
<use xlink:href="#path9_fill" transform="matrix(0.984808 0.173648 -0.173648 0.984808 1368.89 689)" fill="#666666"/>
<use xlink:href="#path10_fill" transform="matrix(0.984808 0.173648 -0.173648 0.984808 1368.89 689)" fill="#666666"/>
<use xlink:href="#path11_fill" transform="matrix(0.984808 0.173648 -0.173648 0.984808 1368.89 689)" fill="#666666"/>
<use xlink:href="#path12_fill" transform="matrix(0.984808 0.173648 -0.173648 0.984808 1368.89 689)" fill="#666666"/>
<use xlink:href="#path13_fill" transform="matrix(0.984808 0.173648 -0.173648 0.984808 1368.89 689)" fill="#666666"/>
<use xlink:href="#path14_stroke" transform="matrix(0.984808 0.173648 -0.173648 0.984808 1368.89 689)"/>
</g>
</g>
<defs>
<path id="path0_fill" d="M 43.5 160.617C 45.5 160.617 45.6667 157.284 45.5 155.617L 40.129 137.117L 38.6774 132.117L 34.5289 117.828L 33.1665 113.135L 24.6866 83.9265L 22.4852 76.3438L 20.9677 71.1171L 14.5806 49.1171L 5 16.117L 2 17.7837L 0.5 18.617L 12 59.6042L 14.9496 70.1171L 16.0913 74.186L 18.2113 81.7419L 27.3368 114.266L 28.6656 119.002L 39.5 157.617C 40 158.617 41.5 160.617 43.5 160.617Z"/>
<path id="path1_fill" d="M 47 84.6171L 22.4852 76.3438L 24.6866 83.9265L 46 91.1171L 47 84.6171Z"/>
<path id="path2_fill" d="M 64 66.1171L 20.9677 71.1171L 22.4852 76.3438L 47 84.6171C 51.8531 84.3316 59.9009 83.7527 66.8811 83.0107L 70.9117 82.5464C 74.4294 82.1043 77.3635 81.6206 79 81.1171C 79.8937 80.8421 80.9282 80.5041 82.0507 80.1244C 83.5589 79.6142 85.2259 79.0288 86.9237 78.4199C 91.3149 76.8449 95.912 75.1124 98.5 74.1171L 84.65 70.9054L 78.9279 69.5786L 73.8797 68.408L 70.1938 67.5533L 64 66.1171Z"/>
<path id="path3_fill" d="M 98.5 80.1171L 98.5 74.1171C 95.912 75.1124 91.3149 76.8449 86.9237 78.4199C 85.2259 79.0288 83.5589 79.6142 82.0507 80.1244C 80.9282 80.5041 79.8937 80.8421 79 81.1171C 77.3635 81.6206 74.4294 82.1043 70.9117 82.5464C 69.6338 82.7071 68.2788 82.8622 66.8811 83.0107C 59.9009 83.7527 51.8531 84.3316 47 84.6171L 46 91.1171C 50.9168 90.6785 58.6967 89.9537 65.5442 89.2488L 69.5944 88.8216C 73.9823 88.3458 77.5434 87.9099 79 87.6171C 81.3678 87.141 82.9211 86.6412 83.863 86.2444L 84.1775 86.1055C 84.6237 85.8983 84.886 85.7281 85 85.6171L 88.6514 84.1295L 98.5 80.1171Z"/>
<path id="path4_fill" d="M 75.1827 39.6171L 70.5 41.1171L 73.6092 51.6171L 75.8301 59.1171L 78.9279 69.5786L 84.65 70.9054L 75.1827 39.6171Z"/>
<path id="path5_fill" d="M 75.8301 59.1171L 73.6092 51.6171L 70.1938 67.5533L 73.8797 68.408L 75.8301 59.1171Z"/>
<path id="path6_fill" d="M 58.5 122.117C 58.1667 123.117 58.8 125.217 60 125.617C 61.2 126.017 62.5 122.617 62.5 122.617L 69.5944 88.8216C 68.3049 88.9614 66.944 89.1047 65.5442 89.2488L 61.6076 107.617L 64 107L 63 112L 60.536 112.617L 58.5 122.117Z"/>
<path id="path7_fill" d="M 34.5289 117.828L 60.536 112.617L 63 112L 64 107L 61.6076 107.617L 33.1665 113.135L 34.5289 117.828Z"/>
<path id="path8_fill" d="M 7.48741 118.117L 6.66452 123.41L 28.6656 119.002L 27.3368 114.266L 7.48741 118.117Z"/>
<path id="path9_fill" d="M 2.5 136.117C 4.1 136.117 4.83333 134.784 5 134.117L 6.66452 123.41L 7.48741 118.117L 13.395 80.1171L 14.4055 73.6171L 14.9496 70.1171L 12 59.6042L 0 132.617C 0.166667 133.784 0.9 136.117 2.5 136.117Z"/>
<path id="path10_fill" d="M 93.7451 119.617L 38.6774 132.117L 40.129 137.117L 95.0777 124.117L 97.7179 123.468L 96.3726 118.974L 93.7451 119.617Z"/>
<path id="path11_fill" d="M 104.5 146.117C 105.7 146.117 106.333 144.117 106.5 143.117L 100.358 122.819L 99 118.33L 88.6514 84.1295L 84.1775 86.1055C 84.0813 86.1501 83.9766 86.1965 83.863 86.2444L 93.7451 119.617L 96.3726 118.974L 97.7179 123.468L 95.0777 124.117L 101 144.117C 101.667 144.784 103.3 146.117 104.5 146.117Z"/>
<path id="path12_fill" d="M 14.4055 73.6171L 13.395 80.1171L 18.2113 81.7419L 16.0913 74.186L 14.4055 73.6171Z"/>
<path id="path13_fill" fill-rule="evenodd" d="M 5 16.117L 2 17.7837L 0.5 13.117C 0.666667 9.28371 6.1645 2.42464 26.5 0.617045C 49 -1.38295 60.5 1.61704 65.5 7.61705L 75.1827 39.6171L 70.5 41.1171C 64.3333 41.4504 49.7 42.4171 40.5 43.6171C 31.3 44.8171 19.3871 47.7837 14.5806 49.1171L 5 16.117ZM 53.8996 7.14625C 55.2382 7.93755 54.5268 9.65686 52.9767 9.78009L 14.1091 12.8699C 12.6559 12.9854 11.6541 11.5533 12.6983 10.5359C 15.1672 8.1305 20.6282 5.81773 33.1665 5C 44.6021 4.25418 50.5682 5.17702 53.8996 7.14625Z"/>
<path id="path14_stroke" d="M 5 16.117L 5.48017 15.9776L 5.30534 15.3754L 4.75718 15.68L 5 16.117ZM 45.5 155.617L 45.9975 155.567L 45.993 155.522L 45.9802 155.478L 45.5 155.617ZM 39.5 157.617L 39.0186 157.752L 39.0315 157.798L 39.0528 157.841L 39.5 157.617ZM 0.5 18.617L 0.257178 18.18L -0.0881182 18.3718L 0.01859 18.7521L 0.5 18.617ZM 0.5 13.117L 0.000471921 13.0953L -0.00341796 13.1848L 0.0239857 13.2701L 0.5 13.117ZM 26.5 0.617045L 26.5443 1.11508L 26.5 0.617045ZM 65.5 7.61705L 65.9786 7.47224L 65.9491 7.375L 65.8841 7.29695L 65.5 7.61705ZM 106.5 143.117L 106.993 143.199L 107.012 143.084L 106.979 142.972L 106.5 143.117ZM 101 144.117L 100.521 144.259L 100.557 144.381L 100.646 144.471L 101 144.117ZM 75.1827 39.6171L 75.6612 39.4722L 75.6612 39.4722L 75.1827 39.6171ZM 73.6092 51.6171L 74.0886 51.4751L 74.0886 51.4751L 73.6092 51.6171ZM 58.5 122.117L 58.9743 122.275L 58.9831 122.249L 58.9889 122.222L 58.5 122.117ZM 62.5 122.617L 62.967 122.796L 62.9812 122.759L 62.9893 122.72L 62.5 122.617ZM 38.6774 132.117L 38.1972 132.256L 38.1972 132.256L 38.6774 132.117ZM 93.7451 119.617L 93.8558 120.105L 93.8641 120.103L 93.7451 119.617ZM 5 134.117L 5.48507 134.238L 5.49058 134.216L 5.49407 134.194L 5 134.117ZM 0 132.617L -0.493381 132.536L -0.505835 132.612L -0.494975 132.688L 0 132.617ZM 12 59.6042L 12.4814 59.4692L 12.4814 59.4692L 12 59.6042ZM 61.6076 107.617L 61.7028 108.108L 61.7177 108.105L 61.7324 108.101L 61.6076 107.617ZM 6.66452 123.41L 6.17046 123.333L 6.17046 123.333L 6.66452 123.41ZM 28.6656 119.002L 29.147 118.867L 29.147 118.867L 28.6656 119.002ZM 34.5289 117.828L 34.0487 117.967L 34.0487 117.967L 34.5289 117.828ZM 99 118.33L 99.4786 118.186L 99.4786 118.186L 99 118.33ZM 100.358 122.819L 99.8796 122.964L 99.8796 122.964L 100.358 122.819ZM 79 81.1171L 78.853 80.6392L 78.853 80.6392L 79 81.1171ZM 98.5 74.1171L 99 74.1171L 99 73.7197L 98.6129 73.63L 98.5 74.1171ZM 64 66.1171L 64.1129 65.63L 64.0284 65.6104L 63.9423 65.6204L 64 66.1171ZM 13.395 80.1171L 12.9009 80.0402L 13.395 80.1171ZM 46 91.1171L 45.8402 91.5908L 45.9397 91.6244L 46.0444 91.6151L 46 91.1171ZM 79 87.6171L 79.0986 88.1072L 79 87.6171ZM 85 85.6171L 84.8114 85.154L 84.721 85.1908L 84.6511 85.2589L 85 85.6171ZM 98.5 80.1171L 98.6886 80.5801L 99 80.4532L 99 80.1171L 98.5 80.1171ZM 22.4852 76.3438L 22.005 76.4832L 22.005 76.4832L 22.4852 76.3438ZM 24.6866 83.9265L 24.2064 84.0659L 24.2064 84.0659L 24.6866 83.9265ZM 16.0913 74.186L 16.5727 74.0509L 16.5727 74.0509L 16.0913 74.186ZM 66.8811 83.0107L 66.9339 83.5079L 66.8811 83.0107ZM 70.9117 82.5464L 70.9741 83.0425L 70.9117 82.5464ZM 82.0507 80.1244L 81.8905 79.6507L 82.0507 80.1244ZM 86.9237 78.4199L 87.0925 78.8905L 86.9237 78.4199ZM 73.8797 68.408L 73.7668 68.8951L 73.7668 68.8951L 73.8797 68.408ZM 78.9279 69.5786L 78.815 70.0657L 78.815 70.0657L 78.9279 69.5786ZM 96.3726 118.974L 96.8516 118.83L 96.7153 118.375L 96.2537 118.488L 96.3726 118.974ZM 97.7179 123.468L 97.8373 123.954L 98.3476 123.828L 98.1969 123.325L 97.7179 123.468ZM 64 107L 64.4903 107.098L 64.6465 106.317L 63.8751 106.516L 64 107ZM 63 112L 63.1215 112.485L 63.4283 112.408L 63.4903 112.098L 63 112ZM 33.1665 5L 33.134 4.50106L 33.1665 5ZM 52.9767 9.78009L 52.937 9.28166L 52.9767 9.78009ZM 14.1091 12.8699L 14.0695 12.3715L 14.1091 12.8699ZM 12.6983 10.5359L 12.3494 10.1778L 12.6983 10.5359ZM 45.0025 155.667C 45.084 156.475 45.0874 157.637 44.8286 158.616C 44.5682 159.618 44.1284 160.117 43.5 160.117L 43.5 161.117C 44.8716 161.117 45.5151 159.95 45.7964 158.868C 46.0793 157.764 46.0827 156.425 45.9975 155.567L 45.0025 155.667ZM 43.5 160.117C 42.6714 160.117 41.9113 159.702 41.2738 159.122C 40.629 158.541 40.1825 157.866 39.9472 157.393L 39.0528 157.841C 39.3175 158.368 39.871 159.193 40.6012 159.862C 41.3387 160.532 42.3286 161.117 43.5 161.117L 43.5 160.117ZM 0.742822 19.0541L 2.24282 18.2208L 1.75718 17.3466L 0.257178 18.18L 0.742822 19.0541ZM 2.24282 18.2208L 5.24282 16.5541L 4.75718 15.68L 1.75718 17.3466L 2.24282 18.2208ZM 2.47601 17.6307L 0.976014 12.964L 0.0239857 13.2701L 1.52399 17.9367L 2.47601 17.6307ZM 0.999528 13.1388C 1.07311 11.4464 2.34424 8.90226 6.1985 6.53337C 10.0466 4.16825 16.421 2.01493 26.5443 1.11508L 26.4557 0.119009C 16.2435 1.02676 9.70121 3.20677 5.67488 5.68142C 1.65467 8.1523 0.0935586 10.9543 0.000471921 13.0953L 0.999528 13.1388ZM 26.5443 1.11508C 37.7648 0.116826 46.1939 0.363886 52.4654 1.60752C 58.7122 2.84451 62.7148 5.0558 65.1159 7.93714L 65.8841 7.29695C 63.2852 4.17828 59.0378 1.88957 52.6596 0.626566C 46.3061 -0.629799 37.7352 -0.882735 26.4557 0.119009L 26.5443 1.11508ZM 106.007 143.035C 105.928 143.511 105.751 144.185 105.445 144.759C 105.128 145.361 104.796 145.617 104.5 145.617L 104.5 146.617C 105.404 146.617 105.988 145.873 106.33 145.225C 106.682 144.549 106.905 143.723 106.993 143.199L 106.007 143.035ZM 104.5 145.617C 104.054 145.617 103.45 145.355 102.822 144.948C 102.209 144.551 101.674 144.085 101.354 143.763L 100.646 144.471C 100.992 144.816 101.607 145.35 102.278 145.786C 102.933 146.212 103.746 146.617 104.5 146.617L 104.5 145.617ZM 65.0214 7.76185L 74.7041 39.7619L 75.6612 39.4722L 65.9786 7.47224L 65.0214 7.76185ZM 70.6525 41.5932L 75.3352 40.0932L 75.0301 39.1409L 70.3475 40.6409L 70.6525 41.5932ZM 70.473 40.6178C 64.3034 40.9513 49.6512 41.9194 40.4353 43.1212L 40.5647 44.1129C 49.7488 42.9147 64.3633 41.9495 70.527 41.6163L 70.473 40.6178ZM 4.51983 16.2564L 14.1005 49.2565L 15.0608 48.9776L 5.48017 15.9776L 4.51983 16.2564ZM 40.4353 43.1212C 31.2071 44.3258 19.2598 47.3002 14.447 48.6352L 14.7143 49.5989C 19.5143 48.2673 31.3929 45.3083 40.5647 44.1129L 40.4353 43.1212ZM 74.0886 51.4751L 70.9794 40.9751L 70.0206 41.259L 73.1298 51.759L 74.0886 51.4751ZM 58.0257 121.959C 57.8085 122.611 57.9192 123.513 58.2078 124.27C 58.4943 125.022 59.0296 125.821 59.8419 126.091L 60.1581 125.143C 59.7704 125.013 59.389 124.562 59.1422 123.914C 58.8974 123.271 58.8582 122.624 58.9743 122.275L 58.0257 121.959ZM 59.8419 126.091C 60.4041 126.279 60.8988 125.989 61.232 125.688C 61.5612 125.387 61.8817 124.94 62.1299 124.522C 62.3778 124.104 62.5905 123.666 62.7341 123.347C 62.8067 123.186 62.8654 123.047 62.9043 122.952C 62.9241 122.904 62.9398 122.865 62.95 122.839C 62.9553 122.826 62.9596 122.815 62.9623 122.808C 62.9637 122.804 62.9649 122.801 62.9656 122.799C 62.966 122.798 62.9663 122.797 62.9665 122.797C 62.9667 122.797 62.9668 122.796 62.9668 122.796C 62.9669 122.796 62.9669 122.796 62.967 122.796C 62.967 122.796 62.967 122.796 62.5 122.617C 62.033 122.438 62.033 122.438 62.033 122.438C 62.033 122.438 62.033 122.438 62.033 122.438C 62.0331 122.438 62.033 122.438 62.033 122.438C 62.0329 122.439 62.0328 122.439 62.0325 122.44C 62.032 122.441 62.0313 122.443 62.0302 122.446C 62.0279 122.452 62.0247 122.46 62.0202 122.471C 62.0108 122.495 61.9974 122.528 61.9793 122.572C 61.9424 122.662 61.8901 122.786 61.8222 122.937C 61.6845 123.243 61.4972 123.63 61.2701 124.012C 61.0433 124.395 60.8138 124.722 60.5617 124.946C 60.3137 125.17 60.1959 125.155 60.1581 125.143L 59.8419 126.091ZM 76.3095 58.9751L 74.0886 51.4751L 73.1298 51.759L 75.3507 59.259L 76.3095 58.9751ZM 38.7881 132.605L 93.8558 120.105L 93.6345 119.129L 38.5667 131.629L 38.7881 132.605ZM 101.479 143.975L 95.5571 123.975L 94.5983 124.259L 100.521 144.259L 101.479 143.975ZM 38.1972 132.256L 39.6489 137.256L 40.6092 136.978L 39.1576 131.978L 38.1972 132.256ZM 39.6489 137.256L 45.0198 155.756L 45.9802 155.478L 40.6092 136.978L 39.6489 137.256ZM 94.9626 123.63L 40.0139 136.63L 40.2441 137.604L 95.1928 124.604L 94.9626 123.63ZM 4.51493 133.996C 4.37326 134.562 3.76471 135.617 2.5 135.617L 2.5 136.617C 4.43529 136.617 5.29341 135.005 5.48507 134.238L 4.51493 133.996ZM 2.5 135.617C 1.97815 135.617 1.52545 135.24 1.14981 134.562C 0.772868 133.89 0.573683 133.103 0.494975 132.546L -0.494975 132.688C -0.407016 133.298 -0.156201 134.26 0.275186 135.047C 0.707884 135.828 1.42185 136.617 2.5 136.617L 2.5 135.617ZM 15.4311 69.982L 12.4814 59.4692L 11.5186 59.7393L 14.4682 70.2521L 15.4311 69.982ZM 12.4814 59.4692L 0.98141 18.482L 0.01859 18.7521L 11.5186 59.7393L 12.4814 59.4692ZM 0.493381 132.698L 12.4934 59.6853L 11.5066 59.5231L -0.493381 132.536L 0.493381 132.698ZM 60.0471 112.512L 58.0111 122.012L 58.9889 122.222L 61.0249 112.722L 60.0471 112.512ZM 6.99335 118.04L 6.17046 123.333L 7.15859 123.487L 7.98148 118.194L 6.99335 118.04ZM 6.17046 123.333L 4.50593 134.04L 5.49407 134.194L 7.15859 123.487L 6.17046 123.333ZM 7.58264 118.608L 27.432 114.757L 27.2415 113.775L 7.39218 117.626L 7.58264 118.608ZM 39.9814 157.482L 29.147 118.867L 28.1842 119.137L 39.0186 157.752L 39.9814 157.482ZM 29.147 118.867L 27.8182 114.131L 26.8554 114.401L 28.1842 119.137L 29.147 118.867ZM 28.5674 118.512L 6.5663 122.92L 6.76274 123.9L 28.7639 119.493L 28.5674 118.512ZM 60.4378 112.127L 34.4306 117.337L 34.6271 118.318L 60.6342 113.107L 60.4378 112.127ZM 34.0487 117.967L 38.1972 132.256L 39.1576 131.978L 35.009 117.688L 34.0487 117.967ZM 32.6863 113.274L 34.0487 117.967L 35.009 117.688L 33.6467 112.996L 32.6863 113.274ZM 33.2617 113.626L 61.7028 108.108L 61.5123 107.126L 33.0713 112.644L 33.2617 113.626ZM 98.5214 118.475L 99.8796 122.964L 100.837 122.674L 99.4786 118.186L 98.5214 118.475ZM 99.8796 122.964L 106.021 143.262L 106.979 142.972L 100.837 122.674L 99.8796 122.964ZM 14.4556 70.0402L 13.9115 73.5402L 14.8996 73.6939L 15.4437 70.1939L 14.4556 70.0402ZM 14.1005 49.2565L 20.4876 71.2565L 21.4479 70.9776L 15.0608 48.9776L 14.1005 49.2565ZM 63.9423 65.6204L 20.91 70.6204L 21.0255 71.6137L 64.0577 66.6137L 63.9423 65.6204ZM 13.9115 73.5402L 12.9009 80.0402L 13.8891 80.1939L 14.8996 73.6939L 13.9115 73.5402ZM 12.9009 80.0402L 6.99335 118.04L 7.98148 118.194L 13.8891 80.1939L 12.9009 80.0402ZM 99 80.1171L 99 74.1171L 98 74.1171L 98 80.1171L 99 80.1171ZM 20.4876 71.2565L 22.005 76.4832L 22.9654 76.2044L 21.4479 70.9776L 20.4876 71.2565ZM 22.3253 76.8175L 46.8401 85.0908L 47.1599 84.1433L 22.6451 75.87L 22.3253 76.8175ZM 22.005 76.4832L 24.2064 84.0659L 25.1668 83.7871L 22.9654 76.2044L 22.005 76.4832ZM 24.2064 84.0659L 32.6863 113.274L 33.6467 112.996L 25.1668 83.7871L 24.2064 84.0659ZM 24.5268 84.4003L 45.8402 91.5908L 46.1598 90.6433L 24.8465 83.4528L 24.5268 84.4003ZM 13.2352 80.5908L 18.0515 82.2157L 18.3711 81.2682L 13.5548 79.6433L 13.2352 80.5908ZM 27.8182 114.131L 18.6927 81.6069L 17.7299 81.877L 26.8554 114.401L 27.8182 114.131ZM 18.6927 81.6069L 16.5727 74.0509L 15.6099 74.321L 17.7299 81.877L 18.6927 81.6069ZM 16.5727 74.0509L 15.4311 69.982L 14.4682 70.2521L 15.6099 74.321L 16.5727 74.0509ZM 14.2456 74.0908L 15.9314 74.6597L 16.2512 73.7122L 14.5654 73.1433L 14.2456 74.0908ZM 47.0294 85.1162C 51.8857 84.8305 59.9452 84.2507 66.9339 83.5079L 66.8282 82.5135C 59.8565 83.2547 51.8205 83.8326 46.9706 84.1179L 47.0294 85.1162ZM 66.9339 83.5079C 68.3337 83.3591 69.6934 83.2035 70.9741 83.0425L 70.8494 82.0503C 69.5742 82.2106 68.224 82.3652 66.8282 82.5135L 66.9339 83.5079ZM 70.9741 83.0425C 74.5013 82.5991 77.4779 82.1073 79.147 81.5949L 78.853 80.6392C 77.249 81.1339 74.3576 81.6095 70.8494 82.0503L 70.9741 83.0425ZM 66.9383 83.5075L 70.969 83.0432L 70.8545 82.0497L 66.8239 82.514L 66.9383 83.5075ZM 62.9893 122.72L 70.0838 88.9243L 69.1051 88.7189L 62.0107 122.514L 62.9893 122.72ZM 69.6483 89.3187C 74.0396 88.8425 77.6231 88.4035 79.0986 88.1072L 78.9014 87.1269C 77.4637 87.4163 73.9249 87.8491 69.5405 88.3245L 69.6483 89.3187ZM 46.0444 91.6151C 50.9622 91.1764 58.7455 90.4513 65.5954 89.7462L 65.493 88.7514C 58.6479 89.4561 50.8714 90.1805 45.9556 90.619L 46.0444 91.6151ZM 65.5954 89.7462C 66.9958 89.602 68.3581 89.4586 69.6483 89.3187L 69.5405 88.3245C 68.2518 88.4642 66.8923 88.6074 65.493 88.7514L 65.5954 89.7462ZM 65.0553 89.144L 61.1187 107.512L 62.0965 107.722L 66.0331 89.3536L 65.0553 89.144ZM 69.542 88.3243L 65.4917 88.7515L 65.5966 89.746L 69.6469 89.3188L 69.542 88.3243ZM 46.4942 91.1931L 47.4942 84.6931L 46.5058 84.541L 45.5058 91.041L 46.4942 91.1931ZM 79.147 81.5949C 80.0449 81.3187 81.086 80.9785 82.2109 80.598L 81.8905 79.6507C 80.7705 80.0296 79.7425 80.3655 78.853 80.6392L 79.147 81.5949ZM 94.2246 119.475L 84.3424 86.1024L 83.3835 86.3864L 93.2657 119.759L 94.2246 119.475ZM 79.0986 88.1072C 81.4938 87.6248 83.0949 87.1101 84.0571 86.7052L 83.6688 85.7836C 82.7473 86.1724 81.2417 86.6571 78.9014 87.1269L 79.0986 88.1072ZM 85.1886 86.0801L 88.84 84.5925L 88.4627 83.6664L 84.8114 85.154L 85.1886 86.0801ZM 88.84 84.5925L 98.6886 80.5801L 98.3114 79.654L 88.4627 83.6664L 88.84 84.5925ZM 88.1728 84.2743L 98.5214 118.475L 99.4786 118.186L 89.1299 83.9847L 88.1728 84.2743ZM 82.2109 80.598C 83.7218 80.0869 85.3931 79.5 87.0925 78.8905L 86.7549 77.9492C 85.0587 78.5576 83.3959 79.1415 81.8905 79.6507L 82.2109 80.598ZM 87.0925 78.8905C 91.4874 77.3142 96.09 75.5797 98.6795 74.5837L 98.3205 73.6504C 95.7341 74.6451 91.1423 76.3756 86.7549 77.9492L 87.0925 78.8905ZM 73.1203 51.5123L 69.7049 67.4485L 70.6827 67.6581L 74.0981 51.7218L 73.1203 51.5123ZM 70.3068 67.0662L 64.1129 65.63L 63.8871 66.6041L 70.0809 68.0404L 70.3068 67.0662ZM 73.9927 67.9209L 70.3068 67.0662L 70.0809 68.0404L 73.7668 68.8951L 73.9927 67.9209ZM 74.369 68.5107L 76.3194 59.2198L 75.3408 59.0143L 73.3904 68.3053L 74.369 68.5107ZM 79.0409 69.0915L 73.9927 67.9209L 73.7668 68.8951L 78.815 70.0657L 79.0409 69.0915ZM 79.4074 69.4366L 76.3095 58.9751L 75.3507 59.259L 78.4485 69.7206L 79.4074 69.4366ZM 74.7041 39.7619L 84.1714 71.0503L 85.1286 70.7606L 75.6612 39.4722L 74.7041 39.7619ZM 98.6129 73.63L 84.7629 70.4184L 84.537 71.3925L 98.3871 74.6041L 98.6129 73.63ZM 84.7629 70.4184L 79.0409 69.0915L 78.815 70.0657L 84.537 71.3925L 84.7629 70.4184ZM 93.8641 120.103L 96.4915 119.459L 96.2537 118.488L 93.6262 119.131L 93.8641 120.103ZM 95.197 124.603L 97.8373 123.954L 97.5986 122.983L 94.9583 123.632L 95.197 124.603ZM 95.8936 119.117L 97.2389 123.611L 98.1969 123.325L 96.8516 118.83L 95.8936 119.117ZM 61.7324 108.101L 64.1249 107.484L 63.8751 106.516L 61.4827 107.133L 61.7324 108.101ZM 63.5097 106.902L 62.5097 111.902L 63.4903 112.098L 64.4903 107.098L 63.5097 106.902ZM 62.8785 111.515L 60.4145 112.132L 60.6575 113.102L 63.1215 112.485L 62.8785 111.515ZM 84.065 86.7018L 84.3795 86.5628L 83.9755 85.6481L 83.6609 85.787L 84.065 86.7018ZM 84.3881 86.5589C 84.844 86.3473 85.1712 86.1482 85.3489 85.9752L 84.6511 85.2589C 84.6008 85.3079 84.4035 85.4493 83.9669 85.652L 84.3881 86.5589ZM 84.3795 86.5628L 88.8534 84.5868L 88.4493 83.6721L 83.9755 85.6481L 84.3795 86.5628ZM 84.0571 86.7052C 84.1749 86.6555 84.2879 86.6055 84.3881 86.5589L 83.9669 85.652C 83.8748 85.6948 83.7783 85.7375 83.6688 85.7836L 84.0571 86.7052ZM 14.1488 13.3683L 53.0163 10.2785L 52.937 9.28166L 14.0695 12.3715L 14.1488 13.3683ZM 54.154 6.71582C 50.6782 4.66119 44.5704 3.75519 33.134 4.50106L 33.199 5.49894C 44.6338 4.75318 50.4583 5.69284 53.6451 7.57667L 54.154 6.71582ZM 33.134 4.50106C 20.5801 5.31981 14.9562 7.63796 12.3494 10.1778L 13.0472 10.894C 15.3781 8.62304 20.6764 6.31565 33.199 5.49894L 33.134 4.50106ZM 53.0163 10.2785C 53.9695 10.2027 54.7119 9.62901 54.9895 8.88944C 55.2797 8.11654 55.0307 7.23405 54.154 6.71582L 53.6451 7.57667C 54.1071 7.84974 54.1717 8.22256 54.0533 8.53796C 53.9224 8.88666 53.534 9.2342 52.937 9.28166L 53.0163 10.2785ZM 14.0695 12.3715C 13.5132 12.4157 13.083 12.1621 12.8882 11.858C 12.7123 11.5834 12.6983 11.234 13.0472 10.894L 12.3494 10.1778C 11.6541 10.8552 11.6189 11.7305 12.0462 12.3974C 12.4545 13.0349 13.2519 13.4396 14.1488 13.3683L 14.0695 12.3715Z"/>
</defs>
</svg>
