<svg width="336" height="218" viewBox="0 0 336 218" version="1.1" xmlns="http://www.w3.org/2000/svg" xmlns:xlink="http://www.w3.org/1999/xlink">
<title>cloud</title>
<desc>Created using Figma</desc>
<g id="Canvas" transform="translate(-324 456)">
<g id="cloud">
<g id="Vector">
<mask id="mask0_outline_ins">
<use xlink:href="#path0_fill" fill="white" transform="translate(324 -456)"/>
</mask>
<g mask="url(#mask0_outline_ins)">
<use xlink:href="#path1_stroke_2x" transform="translate(324 -456)"/>
</g>
</g>
</g>
</g>
<defs>
<path id="path0_fill" d="M 336 139.52C 336 182.852 299.981 218 255.578 218L 60.7656 218C 27.1992 218 0 191.438 0 158.687C 0 125.97 27.1992 99.408 60.7656 99.408C 63.2184 99.408 65.604 99.6092 67.9728 99.8608C 67.3512 95.7355 67.0152 91.5097 67.0152 87.1832C 67.0152 39.0388 107.016 0 156.391 0C 196.829 0 230.966 26.1935 242.004 62.1635C 246.422 61.4425 250.942 61.0568 255.595 61.0568C 299.981 61.0568 336 96.1548 336 139.52Z"/>
<path id="path1_stroke_2x" d="M 67.9728 99.8608L 67.8672 100.855L 69.1545 100.992L 68.9616 99.7118L 67.9728 99.8608ZM 242.004 62.1635L 241.048 62.4569L 241.304 63.291L 242.165 63.1505L 242.004 62.1635ZM 335 139.52C 335 182.276 299.452 217 255.578 217L 255.578 219C 300.51 219 337 183.427 337 139.52L 335 139.52ZM 255.578 217L 60.7656 217L 60.7656 219L 255.578 219L 255.578 217ZM 60.7656 217C 27.7287 217 1 190.863 1 158.687L -1 158.687C -1 192.012 26.6697 219 60.7656 219L 60.7656 217ZM 1 158.687C 1 126.546 27.7283 100.408 60.7656 100.408L 60.7656 98.408C 26.6701 98.408 -1 125.395 -1 158.687L 1 158.687ZM 60.7656 100.408C 63.1763 100.407 65.5092 100.605 67.8672 100.855L 68.0784 98.8664C 65.6988 98.6137 63.2605 98.4089 60.7656 98.408L 60.7656 100.408ZM 68.9616 99.7118C 68.3447 95.6213 68.0144 91.47 68.0152 87.1832L 66.0152 87.1832C 66.016 91.5494 66.3577 95.8497 66.984 100.01L 68.9616 99.7118ZM 68.0152 87.1832C 68.0152 39.6142 107.545 1 156.391 1L 156.391 -1C 106.487 -1 66.0152 38.4634 66.0152 87.1832L 68.0152 87.1832ZM 156.391 1C 196.391 1 230.14 26.9082 241.048 62.4569L 242.96 61.8702C 231.793 25.4789 197.267 -1 156.391 -1L 156.391 1ZM 242.165 63.1505C 246.546 62.4348 250.984 62.0559 255.595 62.0568L 255.595 60.0568C 250.899 60.0577 246.299 60.4501 241.843 61.1766L 242.165 63.1505ZM 255.595 62.0568C 299.452 62.0568 335 96.7304 335 139.52L 337 139.52C 337 95.5792 300.509 60.0568 255.595 60.0568L 255.595 62.0568Z"/>
</defs>
</svg>
