<svg width="37" height="48" viewBox="0 0 37 48" version="1.1" xmlns="http://www.w3.org/2000/svg" xmlns:xlink="http://www.w3.org/1999/xlink">
<title>pin_tool</title>
<desc>Created using Figma</desc>
<g id="Canvas" transform="translate(142 -90)">
<g id="pin_tool">
<g id="Vector">
<use xlink:href="#path0_fill" transform="translate(-142 90)" fill="#474747"/>
</g>
</g>
</g>
<defs>
<path id="path0_fill" d="M 5.43541 37.2172L 0.173396 45.3424L 0.733345 48L 3.3831 47.4325L 8.64262 39.3123C 8.08267 39.0123 7.52772 38.6923 6.99027 38.3372C 6.44532 37.9847 5.92537 37.6072 5.43541 37.2172ZM 27.7134 34.3796C 27.7484 34.3071 27.7709 34.2271 27.8034 34.1496C 27.9359 33.8571 28.0533 33.5646 28.1483 33.2571C 28.1633 33.2021 28.1708 33.1471 28.1883 33.0971C 28.2858 32.7571 28.3683 32.4221 28.4333 32.0771C 28.4333 32.0596 28.4333 32.0471 28.4333 32.0246C 28.9208 29.102 28.0708 25.8419 26.126 22.8968L 28.9008 18.6117C 32.098 19.0192 34.8627 18.2142 36.1926 16.1567C 38.4999 12.5991 35.6926 6.67642 29.9307 2.92382C 24.1637 -0.831274 17.6243 -0.988778 15.322 2.56381C 13.9871 4.62387 14.3771 7.48144 16.0544 10.2465L 13.2747 14.5316C 9.80251 13.9491 6.48532 14.4916 4.01804 16.1317C 4.00305 16.1367 3.98555 16.1417 3.97555 16.1517C 3.68807 16.3467 3.4081 16.5617 3.14562 16.7867C 3.10313 16.8217 3.05313 16.8542 3.01814 16.8892C 2.77316 17.0992 2.55318 17.3342 2.3407 17.5692C 2.2907 17.6292 2.22071 17.6817 2.17321 17.7442C 1.90824 18.0467 1.66326 18.3667 1.44828 18.7067C -2.0114 24.0394 0.940826 32.1096 8.03018 36.7297C 15.1245 41.3498 23.6787 40.7648 27.1309 35.4322C 27.3484 35.0947 27.5484 34.7422 27.7134 34.3796ZM 25.6761 9.48399C 23.4588 8.04146 22.3764 5.7664 23.2638 4.39386C 24.1487 3.02633 26.666 3.08883 28.8783 4.53137C 31.1006 5.9739 32.173 8.25396 31.2905 9.6215C 30.4081 10.989 27.8959 10.9265 25.6761 9.48399Z"/>
</defs>
</svg>
